<svg xmlns="http://www.w3.org/2000/svg" width="32" height="32" viewBox="0 0 32 32">
    <g fill="none" fill-rule="evenodd">
        <path fill="#E60000" d="M31.398 15.787c0 8.646-7.009 15.654-15.654 15.654-8.646 0-15.655-7.008-15.655-15.654S7.1.133 15.744.133 31.398 7.14 31.398 15.787"/>
        <path fill="#FFF" d="M15.868 24.516c-4.301.014-8.776-3.657-8.796-9.551-.013-3.898 2.09-7.65 4.779-9.876 2.622-2.172 6.214-3.565 9.472-3.576.419-.001.858.034 1.126.124-2.849.591-5.116 3.242-5.105 6.25 0 .1.009.206.019.255 4.766 1.16 6.93 4.037 6.943 8.017.014 3.98-3.128 8.34-8.438 8.357"/>
    </g>
</svg>
